<svg width="600" height="150" viewBox="0 0 600 150" fill="none" xmlns="http://www.w3.org/2000/svg">
<path d="M167.051 83.3184C166.693 91.4238 164.414 97.5599 160.215 101.727C156.016 105.893 150.091 107.977 142.441 107.977C134.401 107.977 128.232 105.34 123.936 100.066C119.671 94.7604 117.539 87.2083 117.539 77.4102V65.4473C117.539 55.6816 119.753 48.1621 124.18 42.8887C128.607 37.5827 134.759 34.9297 142.637 34.9297C150.384 34.9297 156.26 37.0944 160.264 41.4238C164.3 45.7533 166.595 51.9707 167.148 60.0762H152.744C152.614 55.0632 151.833 51.6126 150.4 49.7246C149.001 47.804 146.413 46.8438 142.637 46.8438C138.796 46.8438 136.077 48.1947 134.482 50.8965C132.887 53.5658 132.041 57.9766 131.943 64.1289V77.5566C131.943 84.6204 132.725 89.4707 134.287 92.1074C135.882 94.7441 138.6 96.0625 142.441 96.0625C146.217 96.0625 148.822 95.151 150.254 93.3281C151.686 91.4727 152.5 88.1361 152.695 83.3184H167.051ZM220.938 77.8496C220.938 87.3874 218.675 94.793 214.15 100.066C209.658 105.34 203.408 107.977 195.4 107.977C187.425 107.977 181.159 105.372 176.602 100.164C172.044 94.9232 169.733 87.599 169.668 78.1914V66.0332C169.668 56.2676 171.93 48.6504 176.455 43.1816C180.98 37.6803 187.262 34.9297 195.303 34.9297C203.213 34.9297 209.447 37.6315 214.004 43.0352C218.561 48.4062 220.872 55.9583 220.938 65.6914V77.8496ZM206.533 65.9355C206.533 59.5228 205.622 54.7539 203.799 51.6289C201.976 48.5039 199.144 46.9414 195.303 46.9414C191.494 46.9414 188.678 48.4551 186.855 51.4824C185.033 54.4772 184.089 59.0508 184.023 65.2031V77.8496C184.023 84.0671 184.951 88.6569 186.807 91.6191C188.662 94.5488 191.527 96.0137 195.4 96.0137C199.144 96.0137 201.927 94.5814 203.75 91.7168C205.573 88.8197 206.501 84.3438 206.533 78.2891V65.9355ZM244.99 35.9062L258.418 87.3223L271.797 35.9062H290.547V107H276.143V87.7617L277.461 58.123L263.252 107H253.486L239.277 58.123L240.596 87.7617V107H226.24V35.9062H244.99ZM311.475 82V107H297.119V35.9062H321.338C328.369 35.9062 333.968 38.0872 338.135 42.4492C342.334 46.8112 344.434 52.4753 344.434 59.4414C344.434 66.4076 342.367 71.9089 338.232 75.9453C334.098 79.9818 328.369 82 321.045 82H311.475ZM311.475 70.0371H321.338C324.072 70.0371 326.188 69.1419 327.686 67.3516C329.183 65.5612 329.932 62.957 329.932 59.5391C329.932 55.9909 329.167 53.1751 327.637 51.0918C326.107 48.9759 324.056 47.9017 321.484 47.8691H311.475V70.0371ZM385.771 76.2383H363.408V95.0859H389.873V107H349.053V35.9062H389.775V47.8691H363.408V64.666H385.771V76.2383ZM440.195 47.8691H422.617V107H408.213V47.8691H390.928V35.9062H440.195V47.8691ZM480.166 76.2383H457.803V95.0859H484.268V107H443.447V35.9062H484.17V47.8691H457.803V64.666H480.166V76.2383Z" fill="#FDFDFD"/>
</svg>
