<svg width="600" height="150" viewBox="0 0 600 150" fill="none" xmlns="http://www.w3.org/2000/svg">
<path d="M168.906 83.3184C168.548 91.4238 166.27 97.5599 162.07 101.727C157.871 105.893 151.947 107.977 144.297 107.977C136.257 107.977 130.088 105.34 125.791 100.066C121.527 94.7604 119.395 87.2083 119.395 77.4102V65.4473C119.395 55.6816 121.608 48.1621 126.035 42.8887C130.462 37.5827 136.615 34.9297 144.492 34.9297C152.24 34.9297 158.115 37.0944 162.119 41.4238C166.156 45.7533 168.451 51.9707 169.004 60.0762H154.6C154.469 55.0632 153.688 51.6126 152.256 49.7246C150.856 47.804 148.268 46.8438 144.492 46.8438C140.651 46.8438 137.933 48.1947 136.338 50.8965C134.743 53.5658 133.896 57.9766 133.799 64.1289V77.5566C133.799 84.6204 134.58 89.4707 136.143 92.1074C137.738 94.7441 140.456 96.0625 144.297 96.0625C148.073 96.0625 150.677 95.151 152.109 93.3281C153.542 91.4727 154.355 88.1361 154.551 83.3184H168.906ZM222.793 77.8496C222.793 87.3874 220.531 94.793 216.006 100.066C211.514 105.34 205.264 107.977 197.256 107.977C189.281 107.977 183.014 105.372 178.457 100.164C173.9 94.9232 171.589 87.599 171.523 78.1914V66.0332C171.523 56.2676 173.786 48.6504 178.311 43.1816C182.835 37.6803 189.118 34.9297 197.158 34.9297C205.068 34.9297 211.302 37.6315 215.859 43.0352C220.417 48.4062 222.728 55.9583 222.793 65.6914V77.8496ZM208.389 65.9355C208.389 59.5228 207.477 54.7539 205.654 51.6289C203.831 48.5039 200.999 46.9414 197.158 46.9414C193.35 46.9414 190.534 48.4551 188.711 51.4824C186.888 54.4772 185.944 59.0508 185.879 65.2031V77.8496C185.879 84.0671 186.807 88.6569 188.662 91.6191C190.518 94.5488 193.382 96.0137 197.256 96.0137C200.999 96.0137 203.783 94.5814 205.605 91.7168C207.428 88.8197 208.356 84.3438 208.389 78.2891V65.9355ZM277.803 107H263.447L242.451 60.3691V107H228.096V35.9062H242.451L263.496 82.5859V35.9062H277.803V107ZM334.033 107H319.678L298.682 60.3691V107H284.326V35.9062H298.682L319.727 82.5859V35.9062H334.033V107ZM377.275 76.2383H354.912V95.0859H381.377V107H340.557V35.9062H381.279V47.8691H354.912V64.666H377.275V76.2383ZM432.871 83.3184C432.513 91.4238 430.234 97.5599 426.035 101.727C421.836 105.893 415.911 107.977 408.262 107.977C400.221 107.977 394.053 105.34 389.756 100.066C385.492 94.7604 383.359 87.2083 383.359 77.4102V65.4473C383.359 55.6816 385.573 48.1621 390 42.8887C394.427 37.5827 400.579 34.9297 408.457 34.9297C416.204 34.9297 422.08 37.0944 426.084 41.4238C430.12 45.7533 432.415 51.9707 432.969 60.0762H418.564C418.434 55.0632 417.653 51.6126 416.221 49.7246C414.821 47.804 412.233 46.8438 408.457 46.8438C404.616 46.8438 401.898 48.1947 400.303 50.8965C398.708 53.5658 397.861 57.9766 397.764 64.1289V77.5566C397.764 84.6204 398.545 89.4707 400.107 92.1074C401.702 94.7441 404.421 96.0625 408.262 96.0625C412.038 96.0625 414.642 95.151 416.074 93.3281C417.507 91.4727 418.32 88.1361 418.516 83.3184H432.871ZM481.289 47.8691H463.711V107H449.307V47.8691H432.021V35.9062H481.289V47.8691Z" fill="#FDFDFD"/>
</svg>
