<svg width="600" height="150" viewBox="0 0 600 150" fill="none" xmlns="http://www.w3.org/2000/svg">
<path d="M264.424 77.9961H242.109V107H227.754V35.9062H267.109V47.8691H242.109V66.082H264.424V77.9961ZM316.553 35.9062V85.125C316.488 92.5143 314.453 98.1784 310.449 102.117C306.445 106.023 300.7 107.977 293.213 107.977C285.596 107.977 279.769 105.991 275.732 102.02C271.729 98.0482 269.727 92.3027 269.727 84.7832V35.9062H284.18V84.832C284.18 88.8685 284.831 91.7493 286.133 93.4746C287.435 95.1999 289.795 96.0625 293.213 96.0625C296.631 96.0625 298.975 95.2161 300.244 93.5234C301.514 91.7982 302.165 88.9824 302.197 85.0762V35.9062H316.553ZM372.148 107H357.793L336.797 60.3691V107H322.441V35.9062H336.797L357.842 82.5859V35.9062H372.148V107Z" fill="#FDFDFD"/>
</svg>
