<svg width="600" height="150" viewBox="0 0 600 150" fill="none" xmlns="http://www.w3.org/2000/svg">
<path d="M167.127 35.9062L180.555 87.3223L193.934 35.9062H212.684V107H198.279V87.7617L199.598 58.123L185.389 107H175.623L161.414 58.123L162.732 87.7617V107H148.377V35.9062H167.127ZM254.07 92.4492H234.49L230.682 107H215.496L237.713 35.9062H250.848L273.211 107H257.879L254.07 92.4492ZM237.615 80.4863H250.896L244.256 55.1445L237.615 80.4863ZM294.92 79.5586L289.256 86.6875V107H274.9V35.9062H289.256V66.9121L293.797 59.2461L307.029 35.9062H324.607L304.246 67.1562L324.949 107H307.908L294.92 79.5586ZM340.262 107H325.906V35.9062H340.262V107ZM397.029 107H382.674L361.678 60.3691V107H347.322V35.9062H361.678L382.723 82.5859V35.9062H397.029V107ZM451.893 98.9434C449.126 101.938 445.724 104.201 441.688 105.73C437.684 107.228 433.289 107.977 428.504 107.977C420.333 107.977 413.986 105.454 409.461 100.408C404.936 95.3301 402.609 87.957 402.479 78.2891V65.4961C402.479 55.6979 404.611 48.1621 408.875 42.8887C413.172 37.5827 419.422 34.9297 427.625 34.9297C435.34 34.9297 441.15 36.834 445.057 40.6426C448.995 44.4512 451.274 50.4245 451.893 58.5625H437.928C437.537 54.0378 436.593 50.9616 435.096 49.334C433.598 47.6738 431.255 46.8438 428.064 46.8438C424.191 46.8438 421.375 48.2598 419.617 51.0918C417.859 53.9238 416.948 58.4323 416.883 64.6172V77.5078C416.883 83.9857 417.843 88.7057 419.764 91.668C421.717 94.5977 424.907 96.0625 429.334 96.0625C432.166 96.0625 434.461 95.4928 436.219 94.3535L437.488 93.4746V80.4375H427.43V69.5977H451.893V98.9434Z" fill="#FDFDFD"/>
</svg>
