<svg width="600" height="150" viewBox="0 0 600 150" fill="none" xmlns="http://www.w3.org/2000/svg">
<path d="M220.818 82V107H206.463V35.9062H230.682C237.713 35.9062 243.312 38.0872 247.479 42.4492C251.678 46.8112 253.777 52.4753 253.777 59.4414C253.777 66.4076 251.71 71.9089 247.576 75.9453C243.442 79.9818 237.713 82 230.389 82H220.818ZM220.818 70.0371H230.682C233.416 70.0371 235.532 69.1419 237.029 67.3516C238.527 65.5612 239.275 62.957 239.275 59.5391C239.275 55.9909 238.51 53.1751 236.98 51.0918C235.451 48.9759 233.4 47.9017 230.828 47.8691H220.818V70.0371ZM272.752 95.0859H297.947V107H258.396V35.9062H272.752V95.0859ZM336.16 92.4492H316.58L312.771 107H297.586L319.803 35.9062H332.938L355.301 107H339.969L336.16 92.4492ZM319.705 80.4863H332.986L326.346 55.1445L319.705 80.4863ZM371.102 67.8398L381.795 35.9062H397.42L378.377 81.2188V107H363.826V81.2188L344.734 35.9062H360.359L371.102 67.8398Z" fill="#FDFDFD"/>
</svg>
