<svg width="600" height="150" viewBox="0 0 600 150" fill="none" xmlns="http://www.w3.org/2000/svg">
<path d="M232.4 47.8691H214.822V107H200.418V47.8691H183.133V35.9062H232.4V47.8691ZM257.186 81.0234H250.057V107H235.701V35.9062H258.602C265.796 35.9062 271.346 37.778 275.252 41.5215C279.191 45.2324 281.16 50.5221 281.16 57.3906C281.16 66.8307 277.726 73.4388 270.857 77.2148L283.309 106.316V107H267.879L257.186 81.0234ZM250.057 69.0605H258.211C261.076 69.0605 263.224 68.1165 264.656 66.2285C266.089 64.3079 266.805 61.7526 266.805 58.5625C266.805 51.4336 264.021 47.8691 258.455 47.8691H250.057V69.0605ZM319.959 92.4492H300.379L296.57 107H281.385L303.602 35.9062H316.736L339.1 107H323.768L319.959 92.4492ZM303.504 80.4863H316.785L310.145 55.1445L303.504 80.4863ZM355.779 107H341.424V35.9062H355.779V107ZM412.547 107H398.191L377.195 60.3691V107H362.84V35.9062H377.195L398.24 82.5859V35.9062H412.547V107Z" fill="#FDFDFD"/>
</svg>
