<svg width="600" height="150" viewBox="0 0 600 150" fill="none" xmlns="http://www.w3.org/2000/svg">
<path d="M135.188 80.584L141.926 35.9062H156.135L143.488 107H129.084L120.783 65.1055L112.58 107H98.127L85.4316 35.9062H99.7383L106.428 80.5352L114.777 35.9062H126.838L135.188 80.584ZM208.947 77.8496C208.947 87.3874 206.685 94.793 202.16 100.066C197.668 105.34 191.418 107.977 183.41 107.977C175.435 107.977 169.169 105.372 164.611 100.164C160.054 94.9232 157.743 87.599 157.678 78.1914V66.0332C157.678 56.2676 159.94 48.6504 164.465 43.1816C168.99 37.6803 175.272 34.9297 183.312 34.9297C191.223 34.9297 197.456 37.6315 202.014 43.0352C206.571 48.4062 208.882 55.9583 208.947 65.6914V77.8496ZM194.543 65.9355C194.543 59.5228 193.632 54.7539 191.809 51.6289C189.986 48.5039 187.154 46.9414 183.312 46.9414C179.504 46.9414 176.688 48.4551 174.865 51.4824C173.042 54.4772 172.098 59.0508 172.033 65.2031V77.8496C172.033 84.0671 172.961 88.6569 174.816 91.6191C176.672 94.5488 179.536 96.0137 183.41 96.0137C187.154 96.0137 189.937 94.5814 191.76 91.7168C193.583 88.8197 194.51 84.3438 194.543 78.2891V65.9355ZM235.783 81.0234H228.654V107H214.299V35.9062H237.199C244.393 35.9062 249.943 37.778 253.85 41.5215C257.788 45.2324 259.758 50.5221 259.758 57.3906C259.758 66.8307 256.324 73.4388 249.455 77.2148L261.906 106.316V107H246.477L235.783 81.0234ZM228.654 69.0605H236.809C239.673 69.0605 241.822 68.1165 243.254 66.2285C244.686 64.3079 245.402 61.7526 245.402 58.5625C245.402 51.4336 242.619 47.8691 237.053 47.8691H228.654V69.0605ZM284.641 79.5586L278.977 86.6875V107H264.621V35.9062H278.977V66.9121L283.518 59.2461L296.75 35.9062H314.328L293.967 67.1562L314.67 107H297.629L284.641 79.5586ZM363.479 77.8496C363.479 87.3874 361.216 94.793 356.691 100.066C352.199 105.34 345.949 107.977 337.941 107.977C329.966 107.977 323.7 105.372 319.143 100.164C314.585 94.9232 312.274 87.599 312.209 78.1914V66.0332C312.209 56.2676 314.471 48.6504 318.996 43.1816C323.521 37.6803 329.803 34.9297 337.844 34.9297C345.754 34.9297 351.988 37.6315 356.545 43.0352C361.102 48.4062 363.413 55.9583 363.479 65.6914V77.8496ZM349.074 65.9355C349.074 59.5228 348.163 54.7539 346.34 51.6289C344.517 48.5039 341.685 46.9414 337.844 46.9414C334.035 46.9414 331.219 48.4551 329.396 51.4824C327.574 54.4772 326.63 59.0508 326.564 65.2031V77.8496C326.564 84.0671 327.492 88.6569 329.348 91.6191C331.203 94.5488 334.068 96.0137 337.941 96.0137C341.685 96.0137 344.468 94.5814 346.291 91.7168C348.114 88.8197 349.042 84.3438 349.074 78.2891V65.9355ZM415.021 35.9062V85.125C414.956 92.5143 412.922 98.1784 408.918 102.117C404.914 106.023 399.169 107.977 391.682 107.977C384.064 107.977 378.238 105.991 374.201 102.02C370.197 98.0482 368.195 92.3027 368.195 84.7832V35.9062H382.648V84.832C382.648 88.8685 383.299 91.7493 384.602 93.4746C385.904 95.1999 388.264 96.0625 391.682 96.0625C395.1 96.0625 397.443 95.2161 398.713 93.5234C399.982 91.7982 400.633 88.9824 400.666 85.0762V35.9062H415.021ZM466.955 47.8691H449.377V107H434.973V47.8691H417.688V35.9062H466.955V47.8691ZM499.455 88.3477C499.455 85.4505 498.706 83.2695 497.209 81.8047C495.744 80.3073 493.059 78.7611 489.152 77.166C482.023 74.4642 476.896 71.3066 473.771 67.6934C470.646 64.0475 469.084 59.7507 469.084 54.8027C469.084 48.8132 471.2 44.0117 475.432 40.3984C479.696 36.7526 485.1 34.9297 491.643 34.9297C496.005 34.9297 499.895 35.8574 503.312 37.7129C506.73 39.5358 509.351 42.1237 511.174 45.4766C513.029 48.8294 513.957 52.638 513.957 56.9023H499.65C499.65 53.582 498.934 51.0592 497.502 49.334C496.102 47.5762 494.068 46.6973 491.398 46.6973C488.892 46.6973 486.939 47.446 485.539 48.9434C484.139 50.4082 483.439 52.3939 483.439 54.9004C483.439 56.8535 484.221 58.6276 485.783 60.2227C487.346 61.7852 490.113 63.4128 494.084 65.1055C501.018 67.612 506.047 70.6882 509.172 74.334C512.329 77.9798 513.908 82.6185 513.908 88.25C513.908 94.4349 511.939 99.2689 508 102.752C504.061 106.235 498.706 107.977 491.936 107.977C487.346 107.977 483.163 107.033 479.387 105.145C475.611 103.257 472.648 100.555 470.5 97.0391C468.384 93.5234 467.326 89.373 467.326 84.5879H481.73C481.73 88.6895 482.528 91.668 484.123 93.5234C485.718 95.3789 488.322 96.3066 491.936 96.3066C496.949 96.3066 499.455 93.6536 499.455 88.3477Z" fill="#FDFDFD"/>
</svg>
